<?xml version="1.0" encoding="UTF-8"?>
<svg version="1.1" id="Layer_1" x="0px" y="0px" viewBox="0 0 32 32" style="enable-background:new 0 0 32 32;" xmlns="http://www.w3.org/2000/svg">
	<style type="text/css" xml:space="preserve">.Yellow{fill:#FFB115;}&#10;&#9;.Red{fill:#D11C1C;}&#10;&#9;.Black{fill:#727272;}&#10;&#9;.Blue{fill:#1177D7;}&#10;&#9;.White{fill:#FFFFFF;}&#10;&#9;.Green{fill:#039C23;}&#10;&#9;.st0{opacity:0.75;}&#10;&#9;.st1{opacity:0.5;}&#10;&#9;.st2{opacity:0.25;}&#10;&#9;.st3{fill:#FFB115;}</style>
	<path d="M 25.583 7.874 L 11.591 10.604 L 0.425 6.948 L 4.033 0.417 L 25.924 7.582 C 25.826 7.729 25.729 7.826 25.583 7.874" fill="#727272" style="transform-origin: 13.174px 5.511px;" transform="matrix(-1, 0, 0, -1, -0.000001, 0)"/>
	<path d="M 22.294 30.152 L 0.403 22.986 L 7.863 9.434 L 11.179 3.438 L 21.904 7.045 C 21.904 7.045 22.294 7.144 22.294 7.388 L 22.294 29.908 C 22.343 30.005 22.294 30.053 22.294 30.152" fill="#727272" style="transform-origin: 11.359px 16.794px;" transform="matrix(-1, 0, 0, -1, -0.000001, 0)"/>
	<path d="M 26.167 4.413 C 26.167 4.17 25.973 4.023 25.777 4.072 L 11.785 6.851 C 11.542 6.9 11.346 7.095 11.346 7.339 L 11.346 29.811 C 11.346 30.053 11.542 30.2 11.785 30.152 L 25.729 27.422 C 25.973 27.372 26.119 27.178 26.119 26.934 L 26.119 4.413 L 26.167 4.413 Z" style="transform-origin: 18.756px 17.112px;" transform="matrix(-1, 0, 0, -1, -0.000001, 0.000001)" fill="#9fa1a6"/>
	<g fill="#121212" style="" transform="matrix(-0.487545, 0, 0, 0.487456, 31.579653, 0.416585)">
		<path d="M14.2 34.2c0-.5.4-.8.8-.7L37.6 38c.5.1.8.5.8 1v17.4c0 .5-.4.8-.8.7L15 52.6c-.5-.1-.8-.5-.8-1V34.2"/>
		<path d="M38.5 34.9c0 .4-.4.7-.8.6L15.1 31c-.5-.1-.8-.5-.8-1s.4-.7.8-.6l22.6 4.5c.4.1.8.6.8 1"/>
	</g>
	<path d="M 12.857 16.99 C 12.857 17.234 13.053 17.379 13.248 17.331 L 24.266 15.138 C 24.511 15.089 24.657 14.894 24.657 14.65 L 24.657 6.168 C 24.657 5.924 24.462 5.778 24.266 5.827 L 13.248 8.021 C 13.003 8.07 12.857 8.265 12.857 8.508 L 12.857 16.99" fill="#727272" style="transform-origin: 18.756px 11.58px;" transform="matrix(-1, 0, 0, -1, -0.000001, 0)"/>
	<path fill="#1177D7" d="M 14.613 28.298 L 25.777 27.08 L 25.435 16.552 L 15.052 18.892 L 14.613 28.298 Z" style="transform-origin: 20.194px 22.425px;" transform="matrix(-1, 0, 0, -1, -0.000003, 0)"/>
	<path fill="#FFB115" d="M 19.245 25.96 L 28.02 18.989 L 23.779 15.674 L 14.953 17.623 L 19.245 25.96 Z" style="transform-origin: 21.487px 20.816px;" transform="matrix(-1, 0, 0, -1, 0.000001, 0)"/>
	<path fill="#039C23" d="M 18.756 25.96 L 29.385 22.401 L 28.166 16.893 L 17.538 16.893 L 18.756 25.96 Z" style="transform-origin: 23.461px 21.426px;" transform="matrix(-1, 0, 0, -1, 0.000001, 0.000001)"/>
	<path fill="#D11C1C" d="M 16.759 29.079 L 27.972 29.274 L 30.263 21.329 L 19.001 20.353 L 16.759 29.079 Z" style="transform-origin: 23.511px 24.813px;" transform="matrix(-1, 0, 0, -1, -0.000001, 0.000002)"/>
	<path fill="#898a90" d="M 19.878 28.153 L 12.809 24.984 L 12.809 27.957 L 19.878 31.126 L 19.878 28.153 Z" style="transform-origin: 16.344px 28.056px;" transform="matrix(-1, 0, 0, -1, -0.000001, 0)"/>
	<path d="M 31.58 28.982 C 31.58 28.786 31.384 28.641 31.141 28.689 L 20.121 30.834 C 19.927 30.882 19.733 31.078 19.733 31.272 C 19.733 31.467 19.927 31.614 20.121 31.565 L 31.141 29.371 C 31.384 29.371 31.58 29.177 31.58 28.982" fill="#121212" style="transform-origin: 25.656px 30.127px;" transform="matrix(-1, 0, 0, -1, 0.000001, -0.000001)"/>
	<path d="M 19.733 30.834 C 19.733 31.078 19.927 31.223 20.121 31.175 L 31.141 29.03 C 31.384 28.982 31.58 28.786 31.58 28.542 L 31.58 20.06 C 31.58 19.818 31.384 19.671 31.141 19.721 L 20.121 21.865 C 19.878 21.914 19.733 22.108 19.733 22.352 L 19.733 30.834" fill="#727272" style="transform-origin: 25.656px 25.447px;" transform="matrix(-1, 0, 0, -1, 0.000001, -0.000002)"/>
</svg>
