<?xml version="1.0" encoding="UTF-8"?>
<svg version="1.1" id="Layer_1" x="0px" y="0px" viewBox="0 0 32 32" style="enable-background:new 0 0 32 32;" xmlns="http://www.w3.org/2000/svg" xmlns:bx="https://boxy-svg.com">
	<defs>
		<linearGradient id="color-0" bx:pinned="true">
			<stop style="stop-color: #d8d8d8;"/>
		</linearGradient>
		<linearGradient id="color-1" bx:pinned="true">
			<stop style="stop-color: rgb(255, 0, 0);"/>
		</linearGradient>
	</defs>
	<style type="text/css">.Black{fill:#727272;}</style>
	<path class="Black" d="M29.5,19.7L29.5,19.7L29.5,19.7L29.5,19.7L23.8,6l0,0c-0.4-1.2-1.5-2-2.8-2c-1.7,0-3,1.3-3,3v3h-4V7 c0-1.7-1.3-3-3-3C9.7,4,8.6,4.9,8.2,6l0,0L2.5,19.7l0,0l0,0l0,0C2.2,20.4,2,21.2,2,22c0,3.3,2.7,6,6,6s6-2.7,6-6v-4h4v4 c0,3.3,2.7,6,6,6s6-2.7,6-6C30,21.2,29.8,20.4,29.5,19.7z M8,26c-2.2,0-4-1.8-4-4s1.8-4,4-4s4,1.8,4,4S10.2,26,8,26z M24,26 c-2.2,0-4-1.8-4-4s1.8-4,4-4s4,1.8,4,4S26.2,26,24,26z"/>
	<line style="stroke: rgb(255, 0, 0); fill: url(#color-1); stroke-width: 3;" x1="16.39331" y1="7.70894" x2="30" y2="27.50049"/>
	<line style="stroke: rgb(255, 0, 0); fill: url(#color-1); stroke-width: 3;" x1="30" y1="7.70894" x2="16.39331" y2="27.50049"/>
</svg>
