<?xml version="1.0" encoding="UTF-8"?>
<svg version="1.1" id="Layer_1" x="0px" y="0px" viewBox="0 0 32 32" style="enable-background:new 0 0 32 32;" xmlns="http://www.w3.org/2000/svg" xmlns:bx="https://boxy-svg.com">
	<style type="text/css" xml:space="preserve">.Blue{fill:#1177D7;}&#10;&#9;.Yellow{fill:#FFB115;}&#10;&#9;.Black{fill:#727272;}&#10;&#9;.Green{fill:#039C23;}&#10;&#9;.Red{fill:#D11C1C;}&#10;&#9;.st0{opacity:0.75;}&#10;&#9;.st1{opacity:0.5;}</style>
	<g id="FolderOpen" style="" transform="matrix(1.12359822, 0, 0, 1.12359822, -2.02712393, -1.97757244)">
		<path class="Yellow" d="M 29.3 16 L 9.6 16 L 4 26 L 23.8 26 C 24.3 26 24.9 25.8 25.1 25.4 L 30 16.5 C 30.1 16.2 29.8 16 29.3 16 Z"/>
		<g class="st0">
			<path class="Yellow" d="M2.2,25.2l5.5-10c0.3-0.7,1-1.2,1.8-1.2H24v-3c0-0.6-0.4-1-1-1H12V7c0-0.6-0.4-1-1-1H3C2.4,6,2,6.5,2,7v18 c0,0.2,0,0.3,0.1,0.4C2.1,25.4,2.2,25.3,2.2,25.2z"/>
		</g>
	</g>
	<path class="Blue" d="M 31.57747 29.25235 L 24.59155 22.29907 C 25.04226 21.51402 25.26761 20.61683 25.26761 19.60748 C 25.26761 16.4673 22.78873 14 19.63381 14 C 18.7324 14 17.94367 14.2243 17.2676 14.56075 L 20.30986 17.58878 C 20.98591 18.26169 20.98591 19.49533 20.30986 20.28037 C 19.63381 21.06543 18.39437 20.95328 17.60563 20.28037 L 14.56338 17.25234 C 14.22536 17.92524 14 18.71028 14 19.60748 C 14 22.74767 16.47887 25.21496 19.63381 25.21496 C 20.64789 25.21496 21.5493 24.99066 22.33803 24.54206 L 29.32394 31.49533 C 30 32.16823 30.90141 32.16823 31.57747 31.49533 L 31.57747 31.49533 C 32.14085 30.82244 32.14085 29.81309 31.57747 29.25235 Z" style="" bx:origin="-0.777778 -0.777778"/>
</svg>
