<?xml version="1.0" encoding="UTF-8"?>
<svg viewBox="0 0 32 32" x="0px" y="0px" style="enable-background:new 0 0 32 32;" width="32px" height="32px" xmlns="http://www.w3.org/2000/svg" xmlns:bx="https://boxy-svg.com">
	<style type="text/css" xml:space="preserve">.Blue{fill:#1177D7;}&#10;&#9;.Yellow{fill:#FFB115;}&#10;&#9;.Black{fill:#727272;}&#10;&#9;.Green{fill:#039C23;}&#10;&#9;.Red{fill:#D11C1C;}&#10;&#9;.st0{opacity:0.75;}&#10;&#9;.st1{opacity:0.5;}</style>
	<g style="Yellow" transform="matrix(1.33337402, 0, 0, 1.33337402, 0.00360928, 0.00333344)">
		<path d="M 9.99688 -0.0025 C 4.49729 -0.0025 -0.00237 1.79737 -0.00237 3.9972 L -0.00237 7.9969 C -0.00237 10.19674 4.49729 11.9966 9.99688 11.9966 C 15.49647 11.9966 19.99613 10.19674 19.99613 7.9969 L 19.99613 3.9972 C 19.99613 1.79737 15.49647 -0.0025 9.99688 -0.0025 Z" fill="Yellow" class="Yellow"/>
		<path d="M 9.99688 13.99645 C 4.49729 13.99645 -0.00237 12.19659 -0.00237 9.99675 L -0.00237 13.99645 C -0.00237 16.19629 4.49729 17.99615 9.99688 17.99615 C 15.49647 17.99615 19.99613 16.19629 19.99613 13.99645 L 19.99613 9.99675 C 19.99613 12.19659 15.49647 13.99645 9.99688 13.99645 Z" fill="Yellow" class="Yellow"/>
		<path d="M 9.99688 19.996 C 4.49729 19.996 -0.00237 18.19614 -0.00237 15.9963 L -0.00237 19.996 C -0.00237 22.19584 4.49729 23.9957 9.99688 23.9957 C 15.49647 23.9957 19.99613 22.19584 19.99613 19.996 L 19.99613 15.9963 C 19.99613 18.19614 15.49647 19.996 9.99688 19.996 Z" fill="Yellow" class="Yellow"/>
	</g>
	<g id="Layer_1" transform="matrix(1.07453513, -0.00008074, 0.00008074, 1.07453513, 14.26664066, 14.08133411)" style="Blue" bx:origin="-0.778196 -0.774969">
		<path d="M 16.14794 14.13032 L 9.6466 7.65936 C 10.06604 6.92877 10.27575 6.09381 10.27575 5.15448 C 10.27575 2.23211 7.96883 -0.06404 5.03275 -0.06404 C 4.19386 -0.06404 3.45984 0.1447 2.83068 0.45781 L 5.6619 3.2758 C 6.29107 3.90204 6.29107 5.05011 5.6619 5.7807 C 5.03275 6.51129 3.87928 6.40692 3.14526 5.7807 L 0.31404 2.96269 C -0.00055 3.58893 -0.21027 4.31951 -0.21027 5.15448 C -0.21027 8.07684 2.09665 10.37299 5.03275 10.37299 C 5.97649 10.37299 6.81537 10.16425 7.54939 9.74677 L 14.05072 16.21773 C 14.67989 16.84395 15.51877 16.84395 16.14794 16.21773 L 16.14794 16.21773 C 16.67223 15.59151 16.67223 14.65216 16.14794 14.13032 Z" fill="Blue" class="Blue" transform="matrix(0.99999903, -0.00139626, 0.00139626, 0.99999903, -0.01161595, -0.01848925)" bx:origin="-0.778195 -0.778534"/>
	</g>
</svg>
