<?xml version="1.0" encoding="UTF-8"?>
<svg viewBox="0 0 32 32" width="32" height="32" xmlns="http://www.w3.org/2000/svg">
	<defs>
		<style type="text/css" xml:space="preserve">.Blue{fill:#1177D7;}&#10;&#9;.Yellow{fill:#FFB115;}&#10;&#9;.Black{fill:#727272;}&#10;&#9;.Green{fill:#039C23;}&#10;&#9;.Red{fill:#D11C1C;}&#10;&#9;.White{fill:#FFFFFF;}&#10;&#9;.st0{opacity:0.75;}&#10;&#9;.st1{opacity:0.5;}</style>
	</defs>
	<rect class="Green" id="Artboard1" x="0" y="0" width="32" height="32" rx="6" ry="6"/>
	<path d="M 5.94224 24.8756 C 6.03557 25.78893 6.08224 26.92893 6.08224 28.2956 L 6.08224 33.9456 C 6.08224 34.61893 5.81224 34.9556 5.27224 34.9556 L 3.58224 34.9556 C 3.00891 34.9556 2.72224 34.59893 2.72224 33.8856 L 2.72224 18.7556 C 2.72224 16.1956 2.58557 14.3256 2.31224 13.1456 C 2.28557 13.03227 2.27224 12.86893 2.27224 12.6556 C 2.27224 12.44893 2.35557 12.25893 2.52224 12.0856 C 2.68891 11.91227 2.90557 11.8256 3.17224 11.8256 L 4.00224 11.8256 C 4.50224 11.8256 4.85891 12.04227 5.07224 12.4756 C 5.31891 12.98893 5.50557 13.65227 5.63224 14.4656 C 6.27224 13.35227 7.14224 12.53893 8.24224 12.0256 C 9.02891 11.6656 9.91891 11.4856 10.91224 11.4856 C 11.91224 11.4856 12.80557 11.67893 13.59224 12.0656 C 14.37224 12.45227 15.02224 12.98227 15.54224 13.6556 C 16.57557 14.9956 17.09224 16.79227 17.09224 19.0456 C 17.09224 21.39227 16.51224 23.37893 15.35224 25.0056 C 14.13224 26.7256 12.53224 27.5856 10.55224 27.5856 C 8.49224 27.5856 6.95557 26.68227 5.94224 24.8756 Z M 5.77224 19.2756 L 5.77224 20.0256 C 5.77224 21.33893 6.20891 22.46893 7.08224 23.4156 C 7.90891 24.30893 8.84557 24.7556 9.89224 24.7556 C 11.21891 24.7556 12.19891 24.11227 12.83224 22.8256 C 13.34557 21.8056 13.60224 20.5156 13.60224 18.9556 C 13.60224 17.70227 13.30224 16.63893 12.70224 15.7656 C 12.05557 14.81227 11.19224 14.3356 10.11224 14.3356 C 8.90557 14.3356 7.87224 14.83893 7.01224 15.8456 C 6.18557 16.8256 5.77224 17.96893 5.77224 19.2756 Z" transform="matrix(0.5015392303466797, 0, 0, 0.7996427416801453, 11.313742637634277, 1.7813525199890137)" class="White">
		<title>Name</title>
	</path>
</svg>
