<?xml version="1.0" encoding="UTF-8"?>
<svg version="1.1" id="Layer_1" x="0px" y="0px" viewBox="0 0 32 32" style="enable-background:new 0 0 32 32;" xmlns="http://www.w3.org/2000/svg">
	<style type="text/css" xml:space="preserve">.Yellow{fill:#FFB115;}&#10;&#9;.Red{fill:#D11C1C;}&#10;&#9;.Black{fill:#727272;}&#10;&#9;.Blue{fill:#1177D7;}&#10;&#9;.White{fill:#FFFFFF;}&#10;&#9;.Green{fill:#039C23;}&#10;&#9;.st0{opacity:0.75;}&#10;&#9;.st1{opacity:0.5;}&#10;&#9;.st2{opacity:0.25;}&#10;&#9;.st3{fill:#FFB115;}</style>
	<g id="g-1" transform="matrix(1.244649, 0, 0, 1.133721, -3.66194, -2.180767)" style="">
		<g id="Copy">
			<path d="M21, 2L11, 2C10.5, 2 10, 2.5 10, 3L10, 8L5, 8C4.5, 8 4, 8.5 4, 9L4, 29C4, 29.5 4.5, 30 5, 30L21, 30C21.5, 30 22, 29.5 22, 29L22, 24L27, 24C27.5, 24 28, 23.5 28, 23L28, 9L21, 2zM20, 28L6, 28L6, 10L14, 10L14, 15C14, 15.5 14.5, 16 15, 16L20, 16L20, 28zM26, 22L22, 22L22, 15L15, 8L12, 8L12, 4L20, 4L20, 9C20, 9.5 20.5, 10 21, 10L26, 10L26, 22z" fill="#1177D7" class="Blue"/>
		</g>
	</g>
</svg>
