<?xml version="1.0" encoding="UTF-8" standalone="no"?>
<!DOCTYPE svg PUBLIC "-//W3C//DTD SVG 1.1//EN"
 "http://www.w3.org/Graphics/SVG/1.1/DTD/svg11.dtd">
<!-- Generated by graphviz version 16.1.0 (20260904.0139)
 -->
<!-- Title: butterfly Pages: 1 -->
<svg width="2113pt" height="825pt"
 viewBox="0.00 0.00 2113.00 825.00" xmlns="http://www.w3.org/2000/svg" xmlns:xlink="http://www.w3.org/1999/xlink">
<g id="graph0" class="graph" transform="scale(1.52778 1.52778) rotate(0) translate(4 536)">
<title>butterfly</title>
<g id="clust1" class="cluster">
<title>cluster_in_1</title>
<path fill="#edf2ff" stroke="#3b5bdb" stroke-width="2" d="M20,-130C20,-130 396,-130 396,-130 402,-130 408,-136 408,-142 408,-142 408,-236 408,-236 408,-242 402,-248 396,-248 396,-248 20,-248 20,-248 14,-248 8,-242 8,-236 8,-236 8,-142 8,-142 8,-136 14,-130 20,-130"/>
</g>
<g id="clust2" class="cluster">
<title>cluster_focus</title>
<path fill="#e2f1ef" stroke="#0f766e" stroke-width="3" d="M477,-120C477,-120 844.5,-120 844.5,-120 850.5,-120 856.5,-126 856.5,-132 856.5,-132 856.5,-216 856.5,-216 856.5,-222 850.5,-228 844.5,-228 844.5,-228 477,-228 477,-228 471,-228 465,-222 465,-216 465,-216 465,-132 465,-132 465,-126 471,-120 477,-120"/>
</g>
<g id="clust3" class="cluster">
<title>cluster_out_2</title>
<path fill="#fef6ec" stroke="#b45309" stroke-width="2" d="M970.5,-352C970.5,-352 1309.75,-352 1309.75,-352 1315.75,-352 1321.75,-358 1321.75,-364 1321.75,-364 1321.75,-512 1321.75,-512 1321.75,-518 1315.75,-524 1309.75,-524 1309.75,-524 970.5,-524 970.5,-524 964.5,-524 958.5,-518 958.5,-512 958.5,-512 958.5,-364 958.5,-364 958.5,-358 964.5,-352 970.5,-352"/>
</g>
<g id="clust4" class="cluster">
<title>cluster_out_3</title>
<path fill="#fef6ec" stroke="#b45309" stroke-width="2" d="M925.5,-8C925.5,-8 1354.75,-8 1354.75,-8 1360.75,-8 1366.75,-14 1366.75,-20 1366.75,-20 1366.75,-332 1366.75,-332 1366.75,-338 1360.75,-344 1354.75,-344 1354.75,-344 925.5,-344 925.5,-344 919.5,-344 913.5,-338 913.5,-332 913.5,-332 913.5,-20 913.5,-20 913.5,-14 919.5,-8 925.5,-8"/>
</g>
<!-- n1 -->
<g id="node1" class="node">
<title>n1</title>
<polygon fill="#3b5bdb" stroke="none" points="29,-201.5 29,-231 387,-231 387,-201.5 29,-201.5"/>
<text xml:space="preserve" text-anchor="start" x="34" y="-213.7" font-family="Segoe UI" font-weight="bold" font-size="14.00" fill="#ffffff"> DRagLint.Storage.SQLite </text>
<g id="a_node1_0"><a xlink:href="draglint://open?file=C%3A%5CProjects%5CDelphi-RAG-lint%5Csrc%5Cstorage%5CDRagLint.Storage.SQLite.pas&amp;line=11910" xlink:title="DRagLint.Storage.SQLite.TSQLiteSymbolStore.ResolveEnumValueRefs &#160;&#45;&#45; &#160;DRagLint.Storage.SQLite.pas:11910">
<text xml:space="preserve" text-anchor="start" x="34" y="-181.2" font-family="Consolas" font-size="14.00" fill="#1f2933">TSQLiteSymbolStore.ResolveEnumValueRefs</text>
<text xml:space="preserve" text-anchor="start" x="326.5" y="-181.2" font-family="Consolas" font-size="14.00"> &#160;</text>
<text xml:space="preserve" text-anchor="start" x="341.5" y="-181.2" font-family="Consolas" font-size="12.00" fill="#8a94a6">:11910</text>
</a>
</g>
<g id="a_node1_1"><a xlink:href="draglint://open?file=C%3A%5CProjects%5CDelphi-RAG-lint%5Csrc%5Cstorage%5CDRagLint.Storage.SQLite.pas&amp;line=12389" xlink:title="DRagLint.Storage.SQLite.TSQLiteSymbolStore.ResolveCallTargets &#160;&#45;&#45; &#160;DRagLint.Storage.SQLite.pas:12389">
<text xml:space="preserve" text-anchor="start" x="34" y="-153.95" font-family="Consolas" font-size="14.00" fill="#1f2933">TSQLiteSymbolStore.ResolveCallTargets</text>
<text xml:space="preserve" text-anchor="start" x="311.5" y="-153.95" font-family="Consolas" font-size="14.00"> &#160;</text>
<text xml:space="preserve" text-anchor="start" x="326.5" y="-153.95" font-family="Consolas" font-size="12.00" fill="#8a94a6">:12389</text>
</a>
</g>
</g>
<!-- focus -->
<g id="node2" class="node">
<title>focus</title>
<polygon fill="#0f766e" stroke="none" points="488,-175.12 488,-208.62 833.5,-208.62 833.5,-175.12 488,-175.12"/>
<text xml:space="preserve" text-anchor="start" x="495" y="-189.32" font-family="Segoe UI" font-weight="bold" font-size="14.00" fill="#ffffff"> DRagLint.Index.CallResolver · focus </text>
<g id="a_node2_2"><a xlink:href="draglint://open?file=C%3A%5CProjects%5CDelphi-RAG-lint%5Csrc%5Cindex%5CDRagLint.Index.CallResolver.pas&amp;line=0" xlink:title="DRagLint.Index.CallResolver.TCallResolver.ResolveEnumValueRead">
<text xml:space="preserve" text-anchor="start" x="495" y="-149.03" font-family="Consolas" font-weight="bold" font-size="18.00" fill="#0b3f39">TCallResolver.ResolveEnumValueRead</text>
</a>
</g>
</g>
<!-- n1&#45;&gt;focus -->
<g id="edge1" class="edge">
<title>n1:p1&#45;&gt;focus</title>
<path fill="none" stroke="#3b5bdb" stroke-width="1.5" d="M388,-186.38C413.55,-186.38 440.43,-185.82 466.94,-184.95"/>
<polygon fill="#3b5bdb" stroke="#3b5bdb" stroke-width="1.5" points="466.91,-187.75 474.81,-184.68 466.72,-182.16 466.91,-187.75"/>
</g>
<!-- n1&#45;&gt;focus -->
<g id="edge2" class="edge">
<title>n1:p2&#45;&gt;focus</title>
<path fill="none" stroke="#3b5bdb" stroke-width="1.5" d="M388,-159.12C413.56,-159.12 440.45,-159.79 466.96,-160.84"/>
<polygon fill="#3b5bdb" stroke="#3b5bdb" stroke-width="1.5" points="466.73,-163.63 474.84,-161.16 466.96,-158.03 466.73,-163.63"/>
</g>
<!-- n2 -->
<g id="node3" class="node">
<title>n2</title>
<polygon fill="#b45309" stroke="none" points="979.5,-477.75 979.5,-507.25 1300.75,-507.25 1300.75,-477.75 979.5,-477.75"/>
<text xml:space="preserve" text-anchor="start" x="984.5" y="-489.95" font-family="Segoe UI" font-weight="bold" font-size="14.00" fill="#ffffff"> DRagLint.Core.Interfaces </text>
<g id="a_node3_3"><a xlink:href="draglint://open?file=C%3A%5CProjects%5CDelphi-RAG-lint%5Csrc%5Ccore%5CDRagLint.Core.Interfaces.pas&amp;line=1560" xlink:title="DRagLint.Core.Interfaces.ISymbolStore.GetSymbolById &#160;&#45;&#45; &#160;DRagLint.Core.Interfaces.pas:1560">
<text xml:space="preserve" text-anchor="start" x="984.5" y="-457.45" font-family="Consolas" font-size="14.00" fill="#1f2933">ISymbolStore.GetSymbolById</text>
<text xml:space="preserve" text-anchor="start" x="1179.5" y="-457.45" font-family="Consolas" font-size="14.00"> &#160;</text>
<text xml:space="preserve" text-anchor="start" x="1194.5" y="-457.45" font-family="Consolas" font-size="12.00" fill="#8a94a6">:1560</text>
</a>
</g>
<g id="a_node3_4"><a xlink:href="draglint://open?file=C%3A%5CProjects%5CDelphi-RAG-lint%5Csrc%5Ccore%5CDRagLint.Core.Interfaces.pas&amp;line=1217" xlink:title="DRagLint.Core.Interfaces.ISymbolStore.GetTransitiveAncestors &#160;&#45;&#45; &#160;DRagLint.Core.Interfaces.pas:1217">
<text xml:space="preserve" text-anchor="start" x="984.5" y="-430.2" font-family="Consolas" font-size="14.00" fill="#1f2933">ISymbolStore.GetTransitiveAncestors</text>
<text xml:space="preserve" text-anchor="start" x="1247" y="-430.2" font-family="Consolas" font-size="14.00"> &#160;</text>
<text xml:space="preserve" text-anchor="start" x="1262" y="-430.2" font-family="Consolas" font-size="12.00" fill="#8a94a6">:1217</text>
</a>
</g>
<g id="a_node3_5"><a xlink:href="draglint://open?file=C%3A%5CProjects%5CDelphi-RAG-lint%5Csrc%5Ccore%5CDRagLint.Core.Interfaces.pas&amp;line=1217" xlink:title="DRagLint.Core.Interfaces.ISymbolStore.GetTransitiveAncestors &#160;&#45;&#45; &#160;DRagLint.Core.Interfaces.pas:1217">
<text xml:space="preserve" text-anchor="start" x="984.5" y="-402.95" font-family="Consolas" font-size="14.00" fill="#1f2933">ISymbolStore.GetTransitiveAncestors</text>
<text xml:space="preserve" text-anchor="start" x="1247" y="-402.95" font-family="Consolas" font-size="14.00"> &#160;</text>
<text xml:space="preserve" text-anchor="start" x="1262" y="-402.95" font-family="Consolas" font-size="12.00" fill="#8a94a6">:1217</text>
</a>
</g>
<g id="a_node3_6"><a xlink:href="draglint://open?file=C%3A%5CProjects%5CDelphi-RAG-lint%5Csrc%5Ccore%5CDRagLint.Core.Interfaces.pas&amp;line=1560" xlink:title="DRagLint.Core.Interfaces.ISymbolStore.GetSymbolById &#160;&#45;&#45; &#160;DRagLint.Core.Interfaces.pas:1560">
<text xml:space="preserve" text-anchor="start" x="984.5" y="-375.7" font-family="Consolas" font-size="14.00" fill="#1f2933">ISymbolStore.GetSymbolById</text>
<text xml:space="preserve" text-anchor="start" x="1179.5" y="-375.7" font-family="Consolas" font-size="14.00"> &#160;</text>
<text xml:space="preserve" text-anchor="start" x="1194.5" y="-375.7" font-family="Consolas" font-size="12.00" fill="#8a94a6">:1560</text>
</a>
</g>
</g>
<!-- focus&#45;&gt;n2 -->
<g id="edge4" class="edge">
<title>focus&#45;&gt;n2:p4</title>
<path fill="none" stroke="#b45309" stroke-width="1.5" d="M702.77,-215.41C756.72,-271.82 857.75,-366.6 968.45,-379.9"/>
<polygon fill="#b45309" stroke="#b45309" stroke-width="1.5" points="968.01,-382.67 976.24,-380.66 968.55,-377.09 968.01,-382.67"/>
</g>
<!-- focus&#45;&gt;n2 -->
<g id="edge7" class="edge">
<title>focus&#45;&gt;n2:p3</title>
<path fill="none" stroke="#b45309" stroke-width="1.5" d="M696.16,-215.55C747.09,-278.87 849.44,-392.87 968.43,-407.16"/>
<polygon fill="#b45309" stroke="#b45309" stroke-width="1.5" points="968.01,-409.93 976.24,-407.91 968.54,-404.36 968.01,-409.93"/>
</g>
<!-- focus&#45;&gt;n2 -->
<g id="edge9" class="edge">
<title>focus&#45;&gt;n2:p3</title>
<path fill="none" stroke="#b45309" stroke-width="1.5" d="M685.14,-215.43C731.1,-283.59 839.9,-410.68 968.06,-408.58"/>
<polygon fill="#b45309" stroke="#b45309" stroke-width="1.5" points="967.97,-411.39 975.84,-408.25 967.73,-405.79 967.97,-411.39"/>
</g>
<!-- focus&#45;&gt;n2 -->
<g id="edge14" class="edge">
<title>focus&#45;&gt;n2:p4</title>
<path fill="none" stroke="#b45309" stroke-width="1.5" d="M689.37,-215.59C738.54,-277.09 847.48,-383.88 967.95,-381.38"/>
<polygon fill="#b45309" stroke="#b45309" stroke-width="1.5" points="968.01,-384.18 975.87,-381.01 967.75,-378.58 968.01,-384.18"/>
</g>
<!-- n3 -->
<g id="node4" class="node">
<title>n3</title>
<polygon fill="#b45309" stroke="none" points="934.5,-297.5 934.5,-327 1345.75,-327 1345.75,-297.5 934.5,-297.5"/>
<text xml:space="preserve" text-anchor="start" x="939.5" y="-309.7" font-family="Segoe UI" font-weight="bold" font-size="14.00" fill="#ffffff"> DRagLint.Index.CallResolver </text>
<g id="a_node4_7"><a xlink:href="draglint://open?file=C%3A%5CProjects%5CDelphi-RAG-lint%5Csrc%5Cindex%5CDRagLint.Index.CallResolver.pas&amp;line=549" xlink:title="DRagLint.Index.CallResolver.TCallResolver.EnclosingClassChainDeclares &#160;&#45;&#45; &#160;DRagLint.Index.CallResolver.pas:549">
<text xml:space="preserve" text-anchor="start" x="939.5" y="-277.2" font-family="Consolas" font-size="14.00" fill="#1f2933">TCallResolver.EnclosingClassChainDeclares</text>
<text xml:space="preserve" text-anchor="start" x="1247" y="-277.2" font-family="Consolas" font-size="14.00"> &#160;</text>
<text xml:space="preserve" text-anchor="start" x="1262" y="-277.2" font-family="Consolas" font-size="12.00" fill="#8a94a6">:549</text>
</a>
</g>
<g id="a_node4_8"><a xlink:href="draglint://open?file=C%3A%5CProjects%5CDelphi-RAG-lint%5Csrc%5Cindex%5CDRagLint.Index.CallResolver.pas&amp;line=345" xlink:title="DRagLint.Index.CallResolver.TCallResolver.LookupMemberOnType &#160;&#45;&#45; &#160;DRagLint.Index.CallResolver.pas:345">
<text xml:space="preserve" text-anchor="start" x="939.5" y="-249.95" font-family="Consolas" font-size="14.00" fill="#1f2933">TCallResolver.LookupMemberOnType</text>
<text xml:space="preserve" text-anchor="start" x="1179.5" y="-249.95" font-family="Consolas" font-size="14.00"> &#160;</text>
<text xml:space="preserve" text-anchor="start" x="1194.5" y="-249.95" font-family="Consolas" font-size="12.00" fill="#8a94a6">:345</text>
</a>
</g>
<g id="a_node4_9"><a xlink:href="draglint://open?file=C%3A%5CProjects%5CDelphi-RAG-lint%5Csrc%5Cindex%5CDRagLint.Index.CallResolver.pas&amp;line=252" xlink:title="DRagLint.Index.CallResolver.TCallResolver.FindChildOfKind &#160;&#45;&#45; &#160;DRagLint.Index.CallResolver.pas:252">
<text xml:space="preserve" text-anchor="start" x="939.5" y="-222.7" font-family="Consolas" font-size="14.00" fill="#1f2933">TCallResolver.FindChildOfKind</text>
<text xml:space="preserve" text-anchor="start" x="1157" y="-222.7" font-family="Consolas" font-size="14.00"> &#160;</text>
<text xml:space="preserve" text-anchor="start" x="1172" y="-222.7" font-family="Consolas" font-size="12.00" fill="#8a94a6">:252</text>
</a>
</g>
<g id="a_node4_10"><a xlink:href="draglint://open?file=C%3A%5CProjects%5CDelphi-RAG-lint%5Csrc%5Cindex%5CDRagLint.Index.CallResolver.pas&amp;line=1987" xlink:title="DRagLint.Index.CallResolver.TCallResolver.ResolveEnumValueRead.VisibleHere &#160;&#45;&#45; &#160;DRagLint.Index.CallResolver.pas:1987">
<text xml:space="preserve" text-anchor="start" x="939.5" y="-195.45" font-family="Consolas" font-size="14.00" fill="#1f2933">TCallResolver.ResolveEnumValueRead.VisibleHere</text>
<text xml:space="preserve" text-anchor="start" x="1284.5" y="-195.45" font-family="Consolas" font-size="14.00"> &#160;</text>
<text xml:space="preserve" text-anchor="start" x="1299.5" y="-195.45" font-family="Consolas" font-size="12.00" fill="#8a94a6">:1987</text>
</a>
</g>
<g id="a_node4_11"><a xlink:href="draglint://open?file=C%3A%5CProjects%5CDelphi-RAG-lint%5Csrc%5Cindex%5CDRagLint.Index.CallResolver.pas&amp;line=577" xlink:title="DRagLint.Index.CallResolver.TCallResolver.CollapseIdenticalEnumCopies &#160;&#45;&#45; &#160;DRagLint.Index.CallResolver.pas:577">
<text xml:space="preserve" text-anchor="start" x="939.5" y="-168.2" font-family="Consolas" font-size="14.00" fill="#1f2933">TCallResolver.CollapseIdenticalEnumCopies</text>
<text xml:space="preserve" text-anchor="start" x="1247" y="-168.2" font-family="Consolas" font-size="14.00"> &#160;</text>
<text xml:space="preserve" text-anchor="start" x="1262" y="-168.2" font-family="Consolas" font-size="12.00" fill="#8a94a6">:577</text>
</a>
</g>
<g id="a_node4_12"><a xlink:href="draglint://open?file=C%3A%5CProjects%5CDelphi-RAG-lint%5Csrc%5Cindex%5CDRagLint.Index.CallResolver.pas&amp;line=1882" xlink:title="DRagLint.Index.CallResolver.TCallResolver.CollapseIdenticalEnumCopies.Rank &#160;&#45;&#45; &#160;DRagLint.Index.CallResolver.pas:1882">
<text xml:space="preserve" text-anchor="start" x="939.5" y="-140.95" font-family="Consolas" font-size="14.00" fill="#1f2933">TCallResolver.CollapseIdenticalEnumCopies.Rank</text>
<text xml:space="preserve" text-anchor="start" x="1284.5" y="-140.95" font-family="Consolas" font-size="14.00"> &#160;</text>
<text xml:space="preserve" text-anchor="start" x="1299.5" y="-140.95" font-family="Consolas" font-size="12.00" fill="#8a94a6">:1882</text>
</a>
</g>
<g id="a_node4_13"><a xlink:href="draglint://open?file=C%3A%5CProjects%5CDelphi-RAG-lint%5Csrc%5Cindex%5CDRagLint.Index.CallResolver.pas&amp;line=538" xlink:title="DRagLint.Index.CallResolver.TCallResolver.LexicalScopeDeclaresValue &#160;&#45;&#45; &#160;DRagLint.Index.CallResolver.pas:538">
<text xml:space="preserve" text-anchor="start" x="939.5" y="-113.7" font-family="Consolas" font-size="14.00" fill="#1f2933">TCallResolver.LexicalScopeDeclaresValue</text>
<text xml:space="preserve" text-anchor="start" x="1232" y="-113.7" font-family="Consolas" font-size="14.00"> &#160;</text>
<text xml:space="preserve" text-anchor="start" x="1247" y="-113.7" font-family="Consolas" font-size="12.00" fill="#8a94a6">:538</text>
</a>
</g>
<g id="a_node4_14"><a xlink:href="draglint://open?file=C%3A%5CProjects%5CDelphi-RAG-lint%5Csrc%5Cindex%5CDRagLint.Index.CallResolver.pas&amp;line=184" xlink:title="DRagLint.Index.CallResolver.TCallResolver.ChildrenOf &#160;&#45;&#45; &#160;DRagLint.Index.CallResolver.pas:184">
<text xml:space="preserve" text-anchor="start" x="939.5" y="-86.45" font-family="Consolas" font-size="14.00" fill="#1f2933">TCallResolver.ChildrenOf</text>
<text xml:space="preserve" text-anchor="start" x="1119.5" y="-86.45" font-family="Consolas" font-size="14.00"> &#160;</text>
<text xml:space="preserve" text-anchor="start" x="1134.5" y="-86.45" font-family="Consolas" font-size="12.00" fill="#8a94a6">:184</text>
</a>
</g>
<g id="a_node4_15"><a xlink:href="draglint://open?file=C%3A%5CProjects%5CDelphi-RAG-lint%5Csrc%5Cindex%5CDRagLint.Index.CallResolver.pas&amp;line=1996" xlink:title="DRagLint.Index.CallResolver.TCallResolver.ResolveEnumValueRead.AnyVisibleIn &#160;&#45;&#45; &#160;DRagLint.Index.CallResolver.pas:1996">
<text xml:space="preserve" text-anchor="start" x="939.5" y="-59.2" font-family="Consolas" font-size="14.00" fill="#1f2933">TCallResolver.ResolveEnumValueRead.AnyVisibleIn</text>
<text xml:space="preserve" text-anchor="start" x="1292" y="-59.2" font-family="Consolas" font-size="14.00"> &#160;</text>
<text xml:space="preserve" text-anchor="start" x="1307" y="-59.2" font-family="Consolas" font-size="12.00" fill="#8a94a6">:1996</text>
</a>
</g>
<g id="a_node4_16"><a xlink:href="draglint://open?file=C%3A%5CProjects%5CDelphi-RAG-lint%5Csrc%5Cindex%5CDRagLint.Index.CallResolver.pas&amp;line=1987" xlink:title="DRagLint.Index.CallResolver.TCallResolver.ResolveEnumValueRead.VisibleHere &#160;&#45;&#45; &#160;DRagLint.Index.CallResolver.pas:1987">
<text xml:space="preserve" text-anchor="start" x="939.5" y="-31.95" font-family="Consolas" font-size="14.00" fill="#1f2933">TCallResolver.ResolveEnumValueRead.VisibleHere</text>
<text xml:space="preserve" text-anchor="start" x="1284.5" y="-31.95" font-family="Consolas" font-size="14.00"> &#160;</text>
<text xml:space="preserve" text-anchor="start" x="1299.5" y="-31.95" font-family="Consolas" font-size="12.00" fill="#8a94a6">:1987</text>
</a>
</g>
</g>
<!-- focus&#45;&gt;n3 -->
<g id="edge3" class="edge">
<title>focus&#45;&gt;n3:p1</title>
<path fill="none" stroke="#b45309" stroke-width="1.5" d="M725.9,-215.59C776.85,-244.78 851.27,-279.13 923.35,-282.16"/>
<polygon fill="#b45309" stroke="#b45309" stroke-width="1.5" points="923.17,-284.96 931.23,-282.33 923.29,-279.36 923.17,-284.96"/>
</g>
<!-- focus&#45;&gt;n3 -->
<g id="edge5" class="edge">
<title>focus&#45;&gt;n3:p2</title>
<path fill="none" stroke="#b45309" stroke-width="1.5" d="M752.82,-215.51C801.83,-234.38 864.2,-252.97 923.28,-254.95"/>
<polygon fill="#b45309" stroke="#b45309" stroke-width="1.5" points="923.18,-257.75 931.23,-255.09 923.28,-252.15 923.18,-257.75"/>
</g>
<!-- focus&#45;&gt;n3 -->
<g id="edge6" class="edge">
<title>focus&#45;&gt;n3:p3</title>
<path fill="none" stroke="#b45309" stroke-width="1.5" d="M816.99,-215.58C851.57,-222.1 888.43,-226.97 923.62,-227.76"/>
<polygon fill="#b45309" stroke="#b45309" stroke-width="1.5" points="923.2,-230.56 931.23,-227.85 923.26,-224.96 923.2,-230.56"/>
</g>
<!-- focus&#45;&gt;n3 -->
<g id="edge8" class="edge">
<title>focus&#45;&gt;n3:p10</title>
<path fill="none" stroke="#b45309" stroke-width="1.5" d="M709.67,-132.56C759.28,-93.85 840.96,-41.41 923.44,-37.37"/>
<polygon fill="#b45309" stroke="#b45309" stroke-width="1.5" points="923.3,-40.18 931.23,-37.18 923.16,-34.58 923.3,-40.18"/>
</g>
<!-- focus&#45;&gt;n3 -->
<g id="edge10" class="edge">
<title>focus&#45;&gt;n3:p5</title>
<path fill="none" stroke="#b45309" stroke-width="1.5" d="M844.47,-173.46C870.74,-173.42 897.58,-173.38 923.32,-173.38"/>
<polygon fill="#b45309" stroke="#b45309" stroke-width="1.5" points="923.23,-176.18 931.23,-173.38 923.23,-170.58 923.23,-176.18"/>
</g>
<!-- focus&#45;&gt;n3 -->
<g id="edge11" class="edge">
<title>focus&#45;&gt;n3:p6</title>
<path fill="none" stroke="#b45309" stroke-width="1.5" d="M844.21,-150.12C870.51,-147.99 897.42,-146.51 923.27,-146.19"/>
<polygon fill="#b45309" stroke="#b45309" stroke-width="1.5" points="923.25,-148.99 931.23,-146.14 923.21,-143.39 923.25,-148.99"/>
</g>
<!-- focus&#45;&gt;n3 -->
<g id="edge12" class="edge">
<title>focus&#45;&gt;n3:p7</title>
<path fill="none" stroke="#b45309" stroke-width="1.5" d="M811.94,-132.43C847.97,-125.27 886.72,-119.83 923.65,-118.99"/>
<polygon fill="#b45309" stroke="#b45309" stroke-width="1.5" points="923.26,-121.79 931.23,-118.9 923.2,-116.19 923.26,-121.79"/>
</g>
<!-- focus&#45;&gt;n3 -->
<g id="edge13" class="edge">
<title>focus&#45;&gt;n3:p8</title>
<path fill="none" stroke="#b45309" stroke-width="1.5" d="M751.22,-132.45C800.51,-113.06 863.69,-93.77 923.54,-91.79"/>
<polygon fill="#b45309" stroke="#b45309" stroke-width="1.5" points="923.28,-94.6 931.23,-91.66 923.18,-89 923.28,-94.6"/>
</g>
<!-- focus&#45;&gt;n3 -->
<g id="edge15" class="edge">
<title>focus&#45;&gt;n3:p9</title>
<path fill="none" stroke="#b45309" stroke-width="1.5" d="M725.03,-132.4C775.95,-102.78 850.74,-67.69 923.28,-64.6"/>
<polygon fill="#b45309" stroke="#b45309" stroke-width="1.5" points="923.29,-67.4 931.23,-64.42 923.17,-61.8 923.29,-67.4"/>
</g>
<!-- focus&#45;&gt;n3 -->
<g id="edge16" class="edge">
<title>focus&#45;&gt;n3:p10</title>
<path fill="none" stroke="#b45309" stroke-width="1.5" d="M709.67,-132.56C759.28,-93.85 840.96,-41.41 923.44,-37.37"/>
<polygon fill="#b45309" stroke="#b45309" stroke-width="1.5" points="923.3,-40.18 931.23,-37.18 923.16,-34.58 923.3,-40.18"/>
</g>
</g>
</svg>
